<mxfile host="app.diagrams.net" agent="Mozilla/5.0 (Windows NT 10.0; Win64; x64) AppleWebKit/537.36 (KHTML, like Gecko) Chrome/138.0.0.0 Safari/537.36" version="28.0.6">
  <diagram name="Page-1" id="AeU1t8Np7fLr96BN7ZkZ">
    <mxGraphModel dx="426" dy="430" grid="1" gridSize="10" guides="1" tooltips="1" connect="1" arrows="1" fold="1" page="1" pageScale="1" pageWidth="850" pageHeight="1100" math="0" shadow="0">
      <root>
        <mxCell id="0" />
        <mxCell id="1" parent="0" />
        <mxCell id="leFjqJFG7srZwq30S-Zs-3" style="edgeStyle=orthogonalEdgeStyle;rounded=0;orthogonalLoop=1;jettySize=auto;html=1;entryX=0.5;entryY=0;entryDx=0;entryDy=0;" edge="1" parent="1" source="leFjqJFG7srZwq30S-Zs-1" target="leFjqJFG7srZwq30S-Zs-2">
          <mxGeometry relative="1" as="geometry" />
        </mxCell>
        <mxCell id="leFjqJFG7srZwq30S-Zs-1" value="&lt;font style=&quot;font-size: 18px;&quot;&gt;1&lt;/font&gt;" style="ellipse;whiteSpace=wrap;html=1;aspect=fixed;" vertex="1" parent="1">
          <mxGeometry x="200" width="80" height="80" as="geometry" />
        </mxCell>
        <mxCell id="leFjqJFG7srZwq30S-Zs-5" style="edgeStyle=orthogonalEdgeStyle;rounded=0;orthogonalLoop=1;jettySize=auto;html=1;entryX=0.5;entryY=0;entryDx=0;entryDy=0;" edge="1" parent="1" source="leFjqJFG7srZwq30S-Zs-2" target="leFjqJFG7srZwq30S-Zs-4">
          <mxGeometry relative="1" as="geometry" />
        </mxCell>
        <mxCell id="leFjqJFG7srZwq30S-Zs-2" value="&lt;font style=&quot;font-size: 18px;&quot;&gt;2&lt;/font&gt;" style="ellipse;whiteSpace=wrap;html=1;aspect=fixed;" vertex="1" parent="1">
          <mxGeometry x="200" y="120" width="80" height="80" as="geometry" />
        </mxCell>
        <mxCell id="leFjqJFG7srZwq30S-Zs-7" style="edgeStyle=orthogonalEdgeStyle;rounded=0;orthogonalLoop=1;jettySize=auto;html=1;" edge="1" parent="1" source="leFjqJFG7srZwq30S-Zs-4" target="leFjqJFG7srZwq30S-Zs-6">
          <mxGeometry relative="1" as="geometry" />
        </mxCell>
        <mxCell id="leFjqJFG7srZwq30S-Zs-4" value="&lt;font style=&quot;font-size: 18px;&quot;&gt;3&lt;/font&gt;" style="ellipse;whiteSpace=wrap;html=1;aspect=fixed;" vertex="1" parent="1">
          <mxGeometry x="200" y="240" width="80" height="80" as="geometry" />
        </mxCell>
        <mxCell id="leFjqJFG7srZwq30S-Zs-9" style="edgeStyle=orthogonalEdgeStyle;rounded=0;orthogonalLoop=1;jettySize=auto;html=1;" edge="1" parent="1" source="leFjqJFG7srZwq30S-Zs-6" target="leFjqJFG7srZwq30S-Zs-8">
          <mxGeometry relative="1" as="geometry" />
        </mxCell>
        <mxCell id="leFjqJFG7srZwq30S-Zs-6" value="&lt;font style=&quot;font-size: 18px;&quot;&gt;4&lt;/font&gt;" style="ellipse;whiteSpace=wrap;html=1;aspect=fixed;" vertex="1" parent="1">
          <mxGeometry x="200" y="360" width="80" height="80" as="geometry" />
        </mxCell>
        <mxCell id="leFjqJFG7srZwq30S-Zs-8" value="&lt;font style=&quot;font-size: 18px;&quot;&gt;5&lt;/font&gt;" style="ellipse;whiteSpace=wrap;html=1;aspect=fixed;" vertex="1" parent="1">
          <mxGeometry x="200" y="470" width="80" height="80" as="geometry" />
        </mxCell>
      </root>
    </mxGraphModel>
  </diagram>
</mxfile>
